<svg version="1.2" xmlns="http://www.w3.org/2000/svg" viewBox="0 0 420 200" width="150" height="71">
	<title>5350890-ai</title>
	<style>
		tspan { white-space:pre } 
		.s0 { fill: #37474f } 
		.s1 { fill: #455eeb } 
		.s2 { fill: #252525 } 
		.s3 { fill: #2a46e1 } 
		.t4 { font-size: 22px;fill: #455eeb;font-weight: 800;font-family: "Montserrat-ExtraBold", "Montserrat" } 
		.t5 { font-size: 14px;fill: #424242;font-weight: 700;font-family: "Montserrat-Bold", "Montserrat" } 
		.s6 { fill: #424242 } 
		.s7 { fill: #eeeeee } 
	</style>
	<g id="BACKGROUND">
	</g>
	<g id="OBJECTS">
		<g id="&lt;Group&gt;">
			<g id="&lt;Group&gt;">
				<path id="&lt;Path&gt;" class="s0" d="m-608.7 51.3v110.4c0 13.9-11.3 25.2-25.2 25.2h-132.1l47.1-44.8 10.5 20.5 24.4-70.2-71.8 20.3 20.4 12.2-52.6 50.1c-2.4-3.8-3.8-8.4-3.8-13.3v-110.4q0-0.3 0-0.5c0.2-11.6 8.2-21.2 19-24q3-0.7 6.2-0.7h132.7q3.2 0 6.2 0.7c10.8 2.7 18.8 12.4 19 24q0 0.2 0 0.5z"/>
				<g id="&lt;Group&gt;">
					<g id="&lt;Group&gt;">
						<path id="&lt;Path&gt;" class="s0" d="m-781.6 50.8h-32.5l39.6-76.9h21.2z"/>
						<path id="&lt;Path&gt;" class="s1" d="m-749.1 50.8h-32.5l28.3-76.9h21.2z"/>
						<path id="&lt;Path&gt;" class="s0" d="m-716.5 50.8h-32.6l17-76.9h21.2z"/>
						<path id="&lt;Path&gt;" class="s1" d="m-684 50.8h-32.5l5.6-76.9h21.3z"/>
						<path id="&lt;Path&gt;" class="s0" d="m-651.5 50.8h-32.5l-5.6-76.9h21.2z"/>
						<path id="&lt;Path&gt;" class="s0" d="m-586.4 50.8h-32.5l-28.3-76.9h21.2z"/>
						<path id="&lt;Path&gt;" class="s1" d="m-618.9 50.8h-32.6l-16.9-76.9h21.2z"/>
					</g>
					<path id="&lt;Path&gt;" class="s2" d="m-781.6 50.8c0 9-7.3 16.3-16.2 16.3-9 0-16.3-7.3-16.3-16.3z"/>
					<path id="&lt;Path&gt;" class="s3" d="m-749.1 50.8c0 9-7.2 16.3-16.2 16.3-9 0-16.3-7.3-16.3-16.3z"/>
					<path id="&lt;Path&gt;" class="s2" d="m-716.5 50.8c0 9-7.3 16.3-16.3 16.3-9 0-16.3-7.3-16.3-16.3z"/>
					<path id="&lt;Path&gt;" class="s3" d="m-684 50.8c0 9-7.3 16.3-16.3 16.3-8.9 0-16.2-7.3-16.2-16.3z"/>
					<path id="&lt;Path&gt;" class="s2" d="m-651.5 50.8c0 9-7.2 16.3-16.2 16.3-9 0-16.3-7.3-16.3-16.3z"/>
					<path id="&lt;Path&gt;" class="s3" d="m-618.9 50.8c0 9-7.3 16.3-16.3 16.3-9 0-16.3-7.3-16.3-16.3z"/>
					<path id="&lt;Path&gt;" class="s2" d="m-586.4 50.8c0 9-7.3 16.3-16.3 16.3-8.9 0-16.2-7.3-16.2-16.3z"/>
				</g>
			</g>
			<g id="&lt;Group&gt;">
				<text id="ONLINE SHOP
" style="transform: matrix(2,0,0,2,-700.946,241.255)" >
					<tspan x="-82.6" y="0" class="t4" dx="0 0 0 0 0 0 0 0 0 0 0 0" >ONLINE SHOP
</tspan>
				</text>
				<text id="E-COMMERCE
" style="transform: matrix(2,0,0,2,-699.567,284.898)" >
					<tspan x="-66.4" y="0" class="t5" dx="0 3 3 3 3 3 3 3 3 3 3" >E-COMMERCE
</tspan>
				</text>
			</g>
		</g>
		<g id="&lt;Group&gt;">
			<g id="&lt;Group&gt;">
				<text id="Productify" style="transform: matrix(2,0,0,2,293.155,135.255)" >
					<tspan x="-62.9" y="0" class="t4" dx="0" >P</tspan><tspan  y="0" class="t4" dx="0" >r</tspan><tspan  y="0" class="t4" dx="0" >o</tspan><tspan  y="0" class="t4" dx="0" >d</tspan><tspan  y="0" class="t4" dx="0" >u</tspan><tspan  y="0" class="t4" dx="0" >c</tspan><tspan  y="0" class="t4" dx="0" >t</tspan><tspan  y="0" class="t4" dx="0" >i</tspan><tspan  y="0" class="t4" dx="0" >f</tspan><tspan  y="0" class="t4" dx="0 0" >y
</tspan>
				</text>
				<text id="" style="transform: matrix(1,0,0,1,543,273)" >
				</text>
				<text id="" style="transform: matrix(1,0,0,1,244,110)" >
				</text>
			</g>
			<g id="&lt;Group&gt;">
				<path id="&lt;Path&gt;" class="s1" d="m52.2 105v5.2 18.7h0.4 0.7l118.6-118.6-138.8 37.1 32 32-25.7 25.6h7.6z"/>
				<path id="&lt;Path&gt;" class="s0" d="m56.3 133.9h10.1 5.2v5.1 10.8 1.2h5.3l28.9-28.9 32 32 37.1-138.8z"/>
				<path id="&lt;Path&gt;" class="s1" d="m27.9 115.2v22.1h22.1v-22.1z"/>
				<path id="&lt;Path&gt;" class="s1" d="m66.4 139h-10.8v10.8h10.8z"/>
				<path id="&lt;Path&gt;" class="s0" d="m13.4 185.4h10.8v-10.8h-10.8z"/>
				<path id="&lt;Path&gt;" class="s0" d="m64.5 156.2v14.5h14.5v-14.5z"/>
				<path id="&lt;Path&gt;" class="s1" d="m41.2 190.4h10.1v-10h-10.1z"/>
				<path id="&lt;Path&gt;" class="s0" d="m50.3 153.3h-14.5v14.5h14.5z"/>
				<path id="&lt;Path&gt;" class="s1" d="m21.6 141.6h-14.5v14.6h14.5z"/>
			</g>
		</g>
		<g id="&lt;Group&gt;">
			<g id="&lt;Group&gt;">
				<g id="&lt;Group&gt;">
					<path id="&lt;Path&gt;" class="s1" d="m-676.2 602h-40.3c-39.3 0-71.3-32-71.3-71.4 0-26.1-21.3-47.3-47.4-47.3h-8c-6.6 0-12-5.4-12-12 0-6.7 5.4-12 12-12h8c39.4 0 71.4 32 71.4 71.3 0 26.1 21.2 47.4 47.3 47.4h40.3c26.2 0 47.4-21.3 47.4-47.4v-35.9c0-6.6 5.4-12 12-12 6.6 0 12 5.4 12 12v35.9c0 39.4-32 71.4-71.4 71.4z"/>
				</g>
				<g id="&lt;Group&gt;">
					<path id="&lt;Compound Path&gt;" fill-rule="evenodd" class="s0" d="m-653.4 523.2h-62.5c2.5 8.8 10 13.8 21.1 13.8 8.4 0 13.9-2.3 19.8-7.4l15.9 16.5c-8.3 9.2-20.3 13.9-36.7 13.9-30.6 0-50.4-18.8-50.4-44.5 0-25.9 20.2-44.2 47.3-44.2 25.3 0 45.9 16.1 45.9 44.5 0 2.2-0.3 5.1-0.4 7.4zm-63-15.8h35.2c-1.6-9-8.2-14.7-17.6-14.7-9.3 0-15.8 5.7-17.6 14.7z"/>
				</g>
				<g id="&lt;Group&gt;">
					<path id="&lt;Path&gt;" class="s0" d="m-737.8 616.6c0 8-6.5 14.6-14.6 14.6-8 0-14.6-6.6-14.6-14.6 0-8.1 6.6-14.6 14.6-14.6 8.1 0 14.6 6.5 14.6 14.6z"/>
					<path id="&lt;Path&gt;" class="s0" d="m-623.3 616.6c0 8-6.5 14.6-14.6 14.6-8 0-14.6-6.6-14.6-14.6 0-8.1 6.6-14.6 14.6-14.6 8.1 0 14.6 6.5 14.6 14.6z"/>
				</g>
			</g>
			<g id="&lt;Group&gt;">
				<text id="ONLINE SHOP
" style="transform: matrix(2,0,0,2,-700.946,680.484)" >
					<tspan x="-82.6" y="0" class="t4" dx="0 0 0 0 0 0 0 0 0 0 0 0" >ONLINE SHOP
</tspan>
				</text>
				<text id="E-COMMERCE
" style="transform: matrix(2,0,0,2,-699.567,724.128)" >
					<tspan x="-66.4" y="0" class="t5" dx="0 3 3 3 3 3 3 3 3 3 3" >E-COMMERCE
</tspan>
				</text>
			</g>
		</g>
		<g id="&lt;Group&gt;">
			<g id="&lt;Group&gt;">
				<text id="ONLINE SHOP
" style="transform: matrix(2,0,0,2,-241.551,678.484)" >
					<tspan x="-82.6" y="0" class="t4" dx="0 0 0 0 0 0 0 0 0 0 0 0" >ONLINE SHOP
</tspan>
				</text>
				<text id="E-COMMERCE
" style="transform: matrix(2,0,0,2,-240.172,722.128)" >
					<tspan x="-66.4" y="0" class="t5" dx="0 3 3 3 3 3 3 3 3 3 3" >E-COMMERCE
</tspan>
				</text>
			</g>
			<g id="&lt;Group&gt;">
				<g id="&lt;Group&gt;">
					<path id="&lt;Compound Path&gt;" class="s0" d="m-138.1 463.6h-49.4l1.9 14h47.5c3 0 5.5 2.5 5.5 5.5v99c0 3-2.5 5.5-5.5 5.5h-203.1c-3 0-5.5-2.5-5.5-5.5v-99c0-3 2.5-5.5 5.5-5.5h47.5l1.9-14h-49.4c-10.8 0-19.5 8.8-19.5 19.5v99c0 10.7 8.7 19.5 19.5 19.5h203.1c10.7 0 19.5-8.8 19.5-19.5v-99c0-10.7-8.8-19.5-19.5-19.5z"/>
				</g>
				<g id="&lt;Group&gt;">
					<path id="&lt;Path&gt;" class="s1" d="m-194.4 575h-90.5c-5.3 0-9.4-5.6-8.8-11.9l7.4-111.3c0.6-5.3 4.3-9.3 8.8-9.3h4.5q0 0.1 0 0.2l-0.6 8.4c-0.1 1.2 0.3 2.4 1.2 3.2 0.8 0.9 1.9 1.4 3.2 1.4 2.2 0 4.2-1.7 4.3-4l0.6-8.4q0.1-0.4 0.1-0.8h49.1q0 0.1 0 0.1l0.7 9.1c0.1 2.3 2 4 4.3 4 1.2 0 2.4-0.5 3.2-1.4 0.9-0.8 1.3-2 1.2-3.2l-0.6-8.6h4.5c4.5 0 8.2 4 8.8 9.3l7.3 111.3c0.7 6.3-3.4 11.9-8.7 11.9z"/>
					<g id="&lt;Group&gt;">
						<path id="&lt;Path&gt;" class="s1" d="m-207.8 451.2c0.1 1.3-1 2.4-2.3 2.4-1.2 0-2.1-0.9-2.2-2.1l-0.7-9c-0.9-13.5-12-24.2-25.4-24.8q-0.6-0.1-1.2-0.1c-13.9 0-25.4 11-26.7 24.9q-0.1 0.3-0.1 0.6l-0.6 8.4c-0.1 1.2-1.1 2.1-2.2 2.1-1.3 0-2.4-1.1-2.3-2.4l0.6-8.4q0-0.1 0-0.3c1.3-15.2 13.1-27.8 28.3-29.2q1.5-0.2 2.9-0.2c16.4 0 30.1 12.8 31.2 29l0.1 0.4z"/>
					</g>
				</g>
				<path id="&lt;Path&gt;" class="s0" d="m-230.6 593.9h-18.2v23.7h18.2z"/>
				<path id="&lt;Path&gt;" class="s0" d="m-277 627.1h74.7c0-5.3-4.3-9.5-9.6-9.5h-55.5c-5.3 0-9.6 4.2-9.6 9.5z"/>
			</g>
		</g>
		<g id="&lt;Group&gt;">
			<g id="&lt;Group&gt;">
				<text id="ONLINE SHOP
" style="transform: matrix(2,0,0,2,212.896,678.484)" >
					<tspan x="-82.6" y="0" class="t4" dx="0 0 0 0 0 0 0 0 0 0 0 0" >ONLINE SHOP
</tspan>
				</text>
				<text id="E-COMMERCE
" style="transform: matrix(2,0,0,2,214.275,722.128)" >
					<tspan x="-66.4" y="0" class="t5" dx="0 3 3 3 3 3 3 3 3 3 3" >E-COMMERCE
</tspan>
				</text>
			</g>
			<g id="&lt;Group&gt;">
				<g id="&lt;Group&gt;">
					<path id="&lt;Compound Path&gt;" fill-rule="evenodd" class="s1" d="m237 585.3h-92.3c-16.1 0-30.6-10.8-35.1-26.3l-6.7-22.8q0-0.1-0.1-0.3l-6-20.5c-3.3-11.2-1.2-23 5.8-32.3 7-9.3 17.7-14.7 29.3-14.7h70.9c10.6 0 20.7 4.6 27.6 12.6 7 7.9 10.1 18.5 8.7 29-2.4 18-18 31.7-36.3 31.7h-82.1l3.9 12.9c2.6 8.9 10.9 15.1 20.1 15.1h92.3c9.2 0 17.5-6.2 20.1-15.1l19.6-66.7c3.3-11.2 11.8-20.2 22.8-24.1l24.4-8.8c4-1.5 8.5 0.6 9.9 4.6 1.5 4.1-0.6 8.6-4.6 10l-24.5 8.8c-6.3 2.3-11.1 7.5-13 13.9l-19.6 66.7c-4.5 15.5-19 26.3-35.1 26.3zm-120.8-59.2h86.6c10.5 0 19.5-7.8 20.9-18.2 0.8-6-1-12.1-5-16.7-4-4.6-9.8-7.2-15.9-7.2h-70.9c-6.7 0-12.8 3.1-16.8 8.4-4 5.4-5.2 12.2-3.4 18.6z"/>
				</g>
				<path id="&lt;Path&gt;" class="s0" d="m150.7 604.2c0 6.3-5.1 11.4-11.4 11.4-6.3 0-11.4-5.1-11.4-11.4 0-6.3 5.1-11.4 11.4-11.4 6.3 0 11.4 5.1 11.4 11.4z"/>
				<path id="&lt;Path&gt;" class="s0" d="m254.6 604.2c0 6.3-5.1 11.4-11.4 11.4-6.3 0-11.4-5.1-11.4-11.4 0-6.3 5.1-11.4 11.4-11.4 6.3 0 11.4 5.1 11.4 11.4z"/>
			</g>
		</g>
		<g id="&lt;Group&gt;">
			<g id="&lt;Group&gt;">
				<g id="&lt;Group&gt;">
					<text id="ONLINE SHOP
" style="transform: matrix(2,0,0,2,-241.732,241.255)" >
						<tspan x="-82.6" y="0" class="t4" dx="0 0 0 0 0 0 0 0 0 0 0 0" >ONLINE SHOP
</tspan>
					</text>
					<text id="E-COMMERCE
" style="transform: matrix(2,0,0,2,-240.354,284.898)" >
						<tspan x="-66.4" y="0" class="t5" dx="0 3 3 3 3 3 3 3 3 3 3" >E-COMMERCE
</tspan>
					</text>
				</g>
			</g>
			<g id="&lt;Group&gt;">
				<g id="&lt;Group&gt;">
					<path id="&lt;Path&gt;" class="s1" d="m-159.2 167.2l-6.5-98.6c-0.5-4.7-3.8-8.2-7.8-8.2h-39.4l0.5 7.6c0.1 1-0.3 2.1-1 2.9-0.7 0.8-1.8 1.2-2.8 1.2-2.1 0-3.8-1.6-3.9-3.6l-0.6-8.1q0 0 0 0h-43.5q0 0 0 0l-0.6 8.1c-0.1 2-1.8 3.6-3.8 3.6-1.1 0-2.1-0.4-2.9-1.2-0.7-0.8-1.1-1.9-1-2.9l0.5-7.5q0 0 0-0.1h-22.9-16.5-38.7c-3.4 0-6.5 2.6-6.7 6.1-0.2 3.6 2.7 6.7 6.4 6.7h23.8c3.8 0 6.9 3.3 6.6 7.1-0.2 3.5-3.1 6.3-6.6 6.3h-3.3c-3.4 0-6.5 2.5-6.7 6-0.2 3.7 2.7 6.7 6.4 6.7h1.8c3.9 0 7 3.3 6.7 7.2-0.2 3.5-3.1 6.2-6.7 6.2h-40.3c-3.5 0-6.6 2.6-6.7 6-0.2 3.7 2.7 6.8 6.3 6.8h39c3.9 0 6.9 3.2 6.7 7.1-0.2 3.5-3.2 6.2-6.7 6.2h-10.8c-3.6 0-6.4 2.9-6.4 6.4 0 3.6 2.8 6.4 6.4 6.4h9.1c3.9 0 6.9 3.3 6.7 7.1-0.3 3.6-3.2 6.3-6.7 6.3h-34c-3.5 0-6.6 2.6-6.8 6-0.2 3.7 2.8 6.8 6.4 6.8h48.3 7.2 10.3c0.5-8.4 7.4-15 15.9-15 8.4 0 15.3 6.6 15.8 15h56.5c0.5-8.4 7.4-15 15.9-15 8.4 0 15.4 6.6 15.8 15h13.5c4.8 0 8.4-5 7.8-10.6z"/>
					<path id="&lt;Path&gt;" class="s1" d="m-268.6 70.2c1 0 1.9-0.8 1.9-1.8l0.6-7.5q0-0.2 0-0.5c1.2-12.3 11.4-22.1 23.7-22.1q0.5 0 1.1 0.1c11.8 0.5 21.6 10 22.5 21.9v0.1l0.6 8c0 1 0.9 1.8 2 1.8 1.1 0 2-1 1.9-2.1l-0.5-7.7v-0.3c-1.1-14.4-13.2-25.7-27.6-25.7q-1.3 0-2.7 0.1c-13.4 1.2-23.9 12.4-25 25.9q0 0.1 0 0.3l-0.5 7.4c-0.1 1.1 0.8 2.1 2 2.1z"/>
					<g id="&lt;Group&gt;">
						<path id="&lt;Path&gt;" class="s6" d="m-284.5 166.1c-7 0-12.6 5.6-12.6 12.6 0 6.9 5.6 12.5 12.6 12.5 6.9 0 12.5-5.6 12.5-12.5 0-7-5.6-12.6-12.5-12.6z"/>
					</g>
					<g id="&lt;Group&gt;">
						<path id="&lt;Path&gt;" class="s6" d="m-196.3 166.1c-7 0-12.6 5.6-12.6 12.6 0 6.9 5.6 12.5 12.6 12.5 6.9 0 12.5-5.6 12.5-12.5 0-7-5.6-12.6-12.5-12.6z"/>
					</g>
				</g>
				<g id="&lt;Group&gt;">
					<path id="&lt;Compound Path&gt;" fill-rule="evenodd" class="s7" d="m-207.6 124.8h-47.2c1.9 6.6 7.6 10.4 16 10.4 6.3 0 10.5-1.7 14.9-5.6l12 12.5c-6.2 6.9-15.3 10.5-27.7 10.5-23.1 0-38-14.2-38-33.6 0-19.5 15.2-33.4 35.6-33.4 19.2 0 34.7 12.2 34.7 33.6 0 1.7-0.2 3.8-0.3 5.6zm-47.5-11.9h26.5c-1.1-6.9-6.2-11.2-13.2-11.2-7.1 0-12 4.3-13.3 11.2z"/>
				</g>
			</g>
		</g>
	</g>
</svg>